<svg width="13" height="13" viewBox="0 0 13 13" fill="none" xmlns="http://www.w3.org/2000/svg">
<path d="M12.5092 0.490965C12.1819 0.163606 11.7898 0 11.3328 0H1.66739C1.21034 0 0.818266 0.163665 0.490906 0.490965C0.163606 0.818177 0 1.21031 0 1.66727V11.3326C0 11.7895 0.163576 12.1818 0.490906 12.509C0.818266 12.8363 1.21043 13 1.66739 13H11.3327C11.7895 13 12.1819 12.8363 12.5091 12.509C12.8365 12.1818 12.9999 11.7895 12.9999 11.3326V1.66727C12.9999 1.21022 12.8365 0.818295 12.5092 0.490965ZM4.66779 4.68451C5.17838 4.19087 5.79201 3.94394 6.5086 3.94394C7.23073 3.94394 7.84712 4.19087 8.35783 4.68451C8.86853 5.17823 9.12374 5.77496 9.12374 6.47459C9.12374 7.17414 8.86853 7.7709 8.35783 8.26448C7.84712 8.75832 7.23093 9.00522 6.5086 9.00522C5.79204 9.00522 5.17847 8.75811 4.66779 8.26448C4.15708 7.77084 3.90176 7.17414 3.90176 6.47459C3.90176 5.77496 4.15708 5.17826 4.66779 4.68451ZM11.5275 10.9858C11.5275 11.1324 11.4766 11.255 11.3751 11.3538C11.2734 11.4525 11.1522 11.5019 11.011 11.5019H1.96365C1.81698 11.5019 1.69416 11.4525 1.5955 11.3538C1.4967 11.2552 1.44734 11.1324 1.44734 10.9858V5.5012H2.64067C2.52787 5.85672 2.47146 6.22636 2.47146 6.60995C2.47146 7.69353 2.86638 8.6173 3.6563 9.382C4.44632 10.1464 5.39703 10.5288 6.50857 10.5288C7.24208 10.5288 7.91912 10.3538 8.53999 10.004C9.16065 9.65398 9.65123 9.17873 10.0126 8.57775C10.3737 7.97681 10.5543 7.32084 10.5543 6.60998C10.5543 6.22638 10.4977 5.85684 10.3849 5.50123H11.5276V10.9858H11.5275V10.9858ZM11.5275 3.42763C11.5275 3.59126 11.4711 3.72952 11.3581 3.84235C11.2453 3.95526 11.1071 4.01165 10.9434 4.01165H9.47078C9.30724 4.01165 9.16886 3.95523 9.05606 3.84235C8.94324 3.72952 8.88685 3.59126 8.88685 3.42763V2.03127C8.88685 1.87327 8.94324 1.73646 9.05606 1.62076C9.16889 1.50512 9.30727 1.44722 9.47078 1.44722H10.9434C11.1071 1.44722 11.2453 1.50509 11.3581 1.62076C11.4711 1.73646 11.5275 1.87327 11.5275 2.03127V3.42763Z" fill="#626262"/>
</svg>
